#usda 1.0
(
    defaultPrim = "OmniLidar"
    doc = """Generated from Composed Stage of root layer 
"""
    endTimeCode = 1000000
    metersPerUnit = 1
    startTimeCode = 0
    timeCodesPerSecond = 60
    upAxis = "Z"
)

def "Render" (
    hide_in_stage_window = true
    no_delete = true
)
{
    def "OmniverseKit"
    {
        def "HydraTextures" (
            hide_in_stage_window = true
            no_delete = true
        )
        {
            def RenderProduct "omni_kit_widget_viewport_ViewportTexture_0" (
                apiSchemas = ["OmniRtxSettingsCommonAdvancedAPI_1", "OmniRtxSettingsRtAdvancedAPI_1", "OmniRtxSettingsPtAdvancedAPI_1", "OmniRtxPostColorGradingAPI_1", "OmniRtxPostChromaticAberrationAPI_1", "OmniRtxPostBloomPhysicalAPI_1", "OmniRtxPostMatteObjectAPI_1", "OmniRtxPostCompositingAPI_1", "OmniRtxPostDofAPI_1", "OmniRtxPostMotionBlurAPI_1", "OmniRtxPostTvNoiseAPI_1", "OmniRtxPostTonemapIrayReinhardAPI_1", "OmniRtxPostDebugSettingsAPI_1", "OmniRtxDebugSettingsAPI_1"]
                hide_in_stage_window = true
                no_delete = true
            )
            {
                rel camera = </OmniverseKit_Persp>
                rel orderedVars = </Render/Vars/LdrColor>
                custom bool overrideClipRange = 0
                uniform int2 resolution = (1280, 720)
                custom uint64 viewPickingId = 1569335012657230623
                custom int viewportHandle = -1
            }
        }
    }

    def RenderSettings "OmniverseGlobalRenderSettings" (
        apiSchemas = ["OmniRtxSettingsGlobalRtAdvancedAPI_1", "OmniRtxSettingsGlobalPtAdvancedAPI_1"]
        no_delete = true
    )
    {
        rel products = </Render/OmniverseKit/HydraTextures/omni_kit_widget_viewport_ViewportTexture_0>
    }

    def "Vars"
    {
        def RenderVar "LdrColor" (
            hide_in_stage_window = true
            no_delete = true
        )
        {
            uniform string sourceName = "LdrColor"
        }
    }
}

def OmniLidar "OmniLidar" (
    apiSchemas = ["OmniSensorGenericLidarCoreAPI"]
)
{
    float omni:sensor:Core:aspectRatio = 1
    token omni:sensor:Core:auxOutputType = "NONE"
    float omni:sensor:Core:avgPowerW = 0.002
    float omni:sensor:Core:azimuthErrorMean = 0
    float omni:sensor:Core:azimuthErrorStd = 0.015
    float omni:sensor:Core:beamWaistHorM = 0.002
    float omni:sensor:Core:beamWaistVerM = 0.002
    float omni:sensor:Core:bitDepthResolution = 65536
    float omni:sensor:Core:calibrationGain = 40
    float[] omni:sensor:Core:customFrameOfReferenceTrafo = [0, 0, 0, 0, 0, 0]
    float omni:sensor:Core:divergenceHorDeg = 0
    float omni:sensor:Core:divergenceVerDeg = 0
    float omni:sensor:Core:effectiveApertureSizeM = 0.01
    token omni:sensor:Core:elementsCoordsType = "SPHERICAL"
    float omni:sensor:Core:elevationErrorMean = 0
    float omni:sensor:Core:elevationErrorStd = 0
    float[] omni:sensor:Core:emitterState:s001:azimuthDeg = [0, 0, 0, 0, 0, 0, 0, 0, 0, 0, 0, 0, 0, 0, 0, 0, 0, 0, 0, 0, 0, 0, 0, 0, 0, 0, 0, 0, 0, 0, 0, 0, 0, 0, 0, 0, 0, 0, 0, 0, 0, 0, 0, 0, 0, 0, 0, 0, 0, 0, 0, 0, 0, 0, 0, 0, 0, 0, 0, 0, 0, 0, 0, 0, 0, 0, 0, 0, 0, 0, 0, 0, 0, 0, 0, 0, 0, 0, 0, 0, 0, 0, 0, 0, 0, 0, 0, 0, 0, 0, 0, 0, 0, 0, 0, 0, 0, 0, 0, 0, 0, 0, 0, 0, 0, 0, 0, 0, 0, 0, 0, 0, 0, 0, 0, 0, 0, 0, 0, 0, 0, 0, 0, 0, 0, 0, 0, 0, 0, 0, 0, 0, 0, 0, 0, 0, 0, 0, 0, 0, 0, 0, 0, 0, 0, 0, 0, 0, 0, 0, 0, 0, 0, 0, 0, 0, 0, 0, 0, 0, 0, 0, 0, 0, 0, 0, 0, 0, 0, 0, 0, 0, 0, 0, 0, 0, 0, 0, 0, 0, 0, 0, 0, 0, 0, 0, 0, 0, 0, 0, 0, 0, 0, 0, 0, 0, 0, 0, 0, 0, 0, 0, 0, 0, 0, 0, 0, 0, 0, 0, 0, 0, 0, 0, 0, 0, 0, 0, 0, 0, 0, 0, 0, 0, 0, 0, 0, 0, 0, 0, 0, 0, 0, 0, 0, 0, 0, 0, 0, 0, 0, 0, 0, 0, 0, 0, 0, 0, 0, 0, 0, 0, 0, 0, 0, 0, 0, 0, 0, 0, 0, 0, 0, 0, 0, 0, 0, 0, 0, 0, 0, 0, 0, 0, 0, 0, 0, 0, 0, 0, 0, 0, 0, 0, 0, 0, 0, 0, 0, 0, 0, 0, 0, 0, 0, 0, 0, 0, 0, 0, 0, 0, 0, 0, 0, 0, 0, 0, 0, 0, 0, 0, 0, 0, 0, 0, 0, 0, 0, 0, 0, 0, 0, 0, 0, 0, 0, 0, 0, 0, 0, 0, 0, 0, 0, 0, 0, 0, 0, 0, 0, 0, 0, 0, 0, 0, 0, 0, 0, 0, 0, 0, 0, 0, 0, 0, 0, 0, 0, 0, 0, 0, 0, 0, 0, 0, 0, 0, 0, 0, 0, 0, 0, 0, 0, 0, 0, 0, 0, 0, 0, 0, 0, 0, 0, 0, 0, 0, 0, 0, 0, 0, 0, 0, 0, 0, 0, 0, 0, 0, 0, 0, 0, 0, 0, 0, 0, 0, 0, 0, 0, 0, 0, 0, 0, 0, 0, 0, 0, 0, 0, 0, 0, 0, 0, 0, 0, 0, 0, 0, 0, 0, 0, 0, 0, 0, 0, 0, 0, 0, 0, 0, 0, 0, 0, 0, 0, 0, 0, 0, 0, 0, 0, 0, 0, 0, 0, 0, 0, 0, 0, 0, 0, 0, 0, 0, 0, 0, 0, 0, 0, 0, 0, 0, 0, 0, 0, 0, 0, 0, 0, 0, 0, 0, 0, 0, 0, 0, 0, 0, 0, 0, 0, 0, 0, 0, 0, 0, 0, 0, 0, 0, 0, 0, 0, 0, 0, 0, 0, 0, 0, 0, 0, 0, 0, 0, 0, 0, 0, 0, 0, 0, 0, 0, 0, 0, 0, 0, 0, 0, 0, 0, 0, 0, 0, 0, 0, 0, 0, 0, 0, 0, 0, 0, 0, 0, 0, 0, 0, 0, 0, 0, 0, 0, 0, 0, 0, 0, 0, 0, 0, 0, 0, 0, 0, 0, 0, 0, 0, 0, 0, 0, 0, 0, 0, 0, 0, 0, 0, 0, 0, 0, 0, 0, 0, 0, 0, 0, 0, 0, 0, 0, 0, 0, 0, 0, 0, 0, 0, 0, 0, 0, 0, 0, 0, 0, 0, 0, 0, 0, 0, 0, 0, 0, 0, 0, 0, 0, 0, 0, 0, 0, 0, 0, 0, 0, 0, 0, 0, 0, 0, 0, 0, 0, 0, 0, 0, 0, 0, 0, 0, 0, 0, 0, 0, 0, 0, 0, 0, 0, 0, 0, 0, 0, 0, 0, 0, 0, 0, 0, 0, 0, 0, 0, 0, 0, 0, 0, 0, 0, 0, 0, 0, 0, 0, 0, 0, 0, 0, 0, 0, 0, 0, 0, 0, 0, 0, 0, 0, 0, 0, 0, 0, 0, 0, 0, 0, 0, 0, 0, 0, 0, 0, 0, 0, 0, 0, 0, 0, 0, 0, 0, 0, 0, 0, 0, 0, 0, 0, 0, 0, 0, 0, 0, 0, 0, 0, 0, 0, 0, 0, 0, 0, 0, 0, 0, 0, 0, 0, 0, 0, 0, 0, 0, 0, 0, 0, 0, 0, 0, 0, 0, 0, 0, 0, 0, 0, 0, 0, 0, 0, 0, 0, 0, 0, 0, 0, 0, 0, 0, 0, 0, 0, 0, 0, 0, 0, 0, 0, 0, 0, 0, 0, 0, 0, 0, 0, 0, 0, 0, 0, 0, 0, 0, 0, 0, 0, 0, 0, 0, 0, 0, 0, 0, 0, 0, 0, 0, 0, 0, 0, 0, 0, 0, 0, 0, 0, 0, 0, 0, 0, 0, 0, 0, 0, 0, 0, 0, 0, 0, 0, 0, 0, 0, 0, 0, 0, 0, 0, 0, 0, 0, 0, 0, 0, 0, 0, 0, 0, 0, 0, 0, 0, 0, 0, 0, 0, 0, 0, 0, 0, 0, 0, 0, 0, 0, 0, 0, 0, 0, 0, 0, 0, 0, 0, 0, 0, 0, 0, 0, 0, 0, 0, 0, 0, 0, 0, 0, 0, 0, 0, 0, 0, 0, 0, 0, 0, 0, 0, 0, 0]
    uint[] omni:sensor:Core:emitterState:s001:bank = []
    uint[] omni:sensor:Core:emitterState:s001:channelId = [1, 2, 3, 4, 5, 6, 7, 8, 9, 10, 11, 12, 13, 14, 15, 16, 17, 18, 19, 20, 21, 22, 23, 24, 25, 26, 27, 28, 29, 30, 31, 32, 33, 34, 35, 36, 37, 38, 39, 40, 41, 42, 43, 44, 45, 46, 47, 48, 49, 50, 51, 52, 53, 54, 55, 56, 57, 58, 59, 60, 61, 62, 63, 64, 65, 66, 67, 68, 69, 70, 71, 72, 73, 74, 75, 76, 77, 78, 79, 80, 81, 82, 83, 84, 85, 86, 87, 88, 89, 90, 91, 92, 93, 94, 95, 96, 97, 98, 99, 100, 101, 102, 103, 104, 105, 106, 107, 108, 109, 110, 111, 112, 113, 114, 115, 116, 117, 118, 119, 120, 121, 122, 123, 124, 125, 126, 127, 128, 129, 130, 131, 132, 133, 134, 135, 136, 137, 138, 139, 140, 141, 142, 143, 144, 145, 146, 147, 148, 149, 150, 151, 152, 153, 154, 155, 156, 157, 158, 159, 160, 161, 162, 163, 164, 165, 166, 167, 168, 169, 170, 171, 172, 173, 174, 175, 176, 177, 178, 179, 180, 181, 182, 183, 184, 185, 186, 187, 188, 189, 190, 191, 192, 193, 194, 195, 196, 197, 198, 199, 200, 201, 202, 203, 204, 205, 206, 207, 208, 209, 210, 211, 212, 213, 214, 215, 216, 217, 218, 219, 220, 221, 222, 223, 224, 225, 226, 227, 228, 229, 230, 231, 232, 233, 234, 235, 236, 237, 238, 239, 240, 241, 242, 243, 244, 245, 246, 247, 248, 249, 250, 251, 252, 253, 254, 255, 256, 257, 258, 259, 260, 261, 262, 263, 264, 265, 266, 267, 268, 269, 270, 271, 272, 273, 274, 275, 276, 277, 278, 279, 280, 281, 282, 283, 284, 285, 286, 287, 288, 289, 290, 291, 292, 293, 294, 295, 296, 297, 298, 299, 300, 301, 302, 303, 304, 305, 306, 307, 308, 309, 310, 311, 312, 313, 314, 315, 316, 317, 318, 319, 320, 321, 322, 323, 324, 325, 326, 327, 328, 329, 330, 331, 332, 333, 334, 335, 336, 337, 338, 339, 340, 341, 342, 343, 344, 345, 346, 347, 348, 349, 350, 351, 352, 353, 354, 355, 356, 357, 358, 359, 360, 361, 362, 363, 364, 365, 366, 367, 368, 369, 370, 371, 372, 373, 374, 375, 376, 377, 378, 379, 380, 381, 382, 383, 384, 385, 386, 387, 388, 389, 390, 391, 392, 393, 394, 395, 396, 397, 398, 399, 400, 401, 402, 403, 404, 405, 406, 407, 408, 409, 410, 411, 412, 413, 414, 415, 416, 417, 418, 419, 420, 421, 422, 423, 424, 425, 426, 427, 428, 429, 430, 431, 432, 433, 434, 435, 436, 437, 438, 439, 440, 441, 442, 443, 444, 445, 446, 447, 448, 449, 450, 451, 452, 453, 454, 455, 456, 457, 458, 459, 460, 461, 462, 463, 464, 465, 466, 467, 468, 469, 470, 471, 472, 473, 474, 475, 476, 477, 478, 479, 480, 481, 482, 483, 484, 485, 486, 487, 488, 489, 490, 491, 492, 493, 494, 495, 496, 497, 498, 499, 500, 501, 502, 503, 504, 505, 506, 507, 508, 509, 510, 511, 512, 513, 514, 515, 516, 517, 518, 519, 520, 521, 522, 523, 524, 525, 526, 527, 528, 529, 530, 531, 532, 533, 534, 535, 536, 537, 538, 539, 540, 541, 542, 543, 544, 545, 546, 547, 548, 549, 550, 551, 552, 553, 554, 555, 556, 557, 558, 559, 560, 561, 562, 563, 564, 565, 566, 567, 568, 569, 570, 571, 572, 573, 574, 575, 576, 577, 578, 579, 580, 581, 582, 583, 584, 585, 586, 587, 588, 589, 590, 591, 592, 593, 594, 595, 596, 597, 598, 599, 600, 601, 602, 603, 604, 605, 606, 607, 608, 609, 610, 611, 612, 613, 614, 615, 616, 617, 618, 619, 620, 621, 622, 623, 624, 625, 626, 627, 628, 629, 630, 631, 632, 633, 634, 635, 636, 637, 638, 639, 640, 641, 642, 643, 644, 645, 646, 647, 648, 649, 650, 651, 652, 653, 654, 655, 656, 657, 658, 659, 660, 661, 662, 663, 664, 665, 666, 667, 668, 669, 670, 671, 672, 673, 674, 675, 676, 677, 678, 679, 680, 681, 682, 683, 684, 685, 686, 687, 688, 689, 690, 691, 692, 693, 694, 695, 696, 697, 698, 699, 700, 701, 702, 703, 704, 705, 706, 707, 708, 709, 710, 711, 712, 713, 714, 715, 716, 717, 718, 719, 720, 721, 722, 723, 724, 725, 726, 727, 728, 729, 730, 731, 732, 733, 734, 735, 736, 737, 738, 739, 740, 741, 742, 743, 744, 745, 746, 747, 748, 749, 750, 751, 752, 753, 754, 755, 756, 757, 758, 759, 760, 761, 762, 763, 764, 765, 766, 767, 768, 769, 770, 771, 772, 773, 774, 775, 776, 777, 778, 779, 780, 781, 782, 783, 784, 785, 786, 787, 788, 789, 790, 791, 792, 793, 794, 795, 796, 797, 798, 799, 800, 801, 802, 803, 804, 805, 806, 807, 808, 809, 810, 811, 812, 813, 814, 815, 816, 817, 818, 819, 820, 821, 822, 823, 824, 825, 826, 827, 828, 829, 830, 831, 832, 833, 834, 835, 836, 837, 838, 839, 840, 841, 842, 843, 844, 845, 846, 847, 848, 849, 850, 851, 852, 853, 854, 855, 856, 857, 858, 859, 860, 861, 862, 863, 864, 865, 866, 867, 868, 869, 870, 871, 872, 873, 874, 875, 876, 877, 878, 879, 880, 881, 882, 883, 884, 885, 886, 887, 888, 889, 890, 891, 892, 893, 894, 895, 896, 897, 898, 899, 900, 901]
    float[] omni:sensor:Core:emitterState:s001:distanceCorrectionM = []
    float[] omni:sensor:Core:emitterState:s001:elevationDeg = [-90, -89.9, -89.8, -89.7, -89.6, -89.5, -89.4, -89.3, -89.2, -89.1, -89, -88.9, -88.8, -88.7, -88.6, -88.5, -88.4, -88.3, -88.2, -88.1, -88, -87.9, -87.8, -87.7, -87.6, -87.5, -87.4, -87.3, -87.2, -87.1, -87, -86.9, -86.8, -86.7, -86.6, -86.5, -86.4, -86.3, -86.2, -86.1, -86, -85.9, -85.8, -85.7, -85.6, -85.5, -85.4, -85.3, -85.2, -85.1, -85, -84.9, -84.8, -84.7, -84.6, -84.5, -84.4, -84.3, -84.2, -84.1, -84, -83.9, -83.8, -83.7, -83.6, -83.5, -83.4, -83.3, -83.2, -83.1, -83, -82.9, -82.8, -82.7, -82.6, -82.5, -82.4, -82.3, -82.2, -82.1, -82, -81.9, -81.8, -81.7, -81.6, -81.5, -81.4, -81.3, -81.2, -81.1, -81, -80.9, -80.8, -80.7, -80.6, -80.5, -80.4, -80.3, -80.2, -80.1, -80, -79.9, -79.8, -79.7, -79.6, -79.5, -79.4, -79.3, -79.2, -79.1, -79, -78.9, -78.8, -78.7, -78.6, -78.5, -78.4, -78.3, -78.2, -78.1, -78, -77.9, -77.8, -77.7, -77.6, -77.5, -77.4, -77.3, -77.2, -77.1, -77, -76.9, -76.8, -76.7, -76.6, -76.5, -76.4, -76.3, -76.2, -76.1, -76, -75.9, -75.8, -75.7, -75.6, -75.5, -75.4, -75.3, -75.2, -75.1, -75, -74.9, -74.8, -74.7, -74.6, -74.5, -74.4, -74.3, -74.2, -74.1, -74, -73.9, -73.8, -73.7, -73.6, -73.5, -73.4, -73.3, -73.2, -73.1, -73, -72.9, -72.8, -72.7, -72.6, -72.5, -72.4, -72.3, -72.2, -72.1, -72, -71.9, -71.8, -71.7, -71.6, -71.5, -71.4, -71.3, -71.2, -71.1, -71, -70.9, -70.8, -70.7, -70.6, -70.5, -70.4, -70.3, -70.2, -70.1, -70, -69.9, -69.8, -69.7, -69.6, -69.5, -69.4, -69.3, -69.2, -69.1, -69, -68.9, -68.8, -68.7, -68.6, -68.5, -68.4, -68.3, -68.2, -68.1, -68, -67.9, -67.8, -67.7, -67.6, -67.5, -67.4, -67.3, -67.2, -67.1, -67, -66.9, -66.8, -66.7, -66.6, -66.5, -66.4, -66.3, -66.2, -66.1, -66, -65.9, -65.8, -65.7, -65.6, -65.5, -65.4, -65.3, -65.2, -65.1, -65, -64.9, -64.8, -64.7, -64.6, -64.5, -64.4, -64.3, -64.2, -64.1, -64, -63.9, -63.8, -63.7, -63.6, -63.5, -63.4, -63.3, -63.2, -63.1, -63, -62.9, -62.8, -62.7, -62.6, -62.5, -62.4, -62.3, -62.2, -62.1, -62, -61.9, -61.8, -61.7, -61.6, -61.5, -61.4, -61.3, -61.2, -61.1, -61, -60.9, -60.8, -60.7, -60.6, -60.5, -60.4, -60.3, -60.2, -60.1, -60, -59.9, -59.8, -59.7, -59.6, -59.5, -59.4, -59.3, -59.2, -59.1, -59, -58.9, -58.8, -58.7, -58.6, -58.5, -58.4, -58.3, -58.2, -58.1, -58, -57.9, -57.8, -57.7, -57.6, -57.5, -57.4, -57.3, -57.2, -57.1, -57, -56.9, -56.8, -56.7, -56.6, -56.5, -56.4, -56.3, -56.2, -56.1, -56, -55.9, -55.8, -55.7, -55.6, -55.5, -55.4, -55.3, -55.2, -55.1, -55, -54.9, -54.8, -54.7, -54.6, -54.5, -54.4, -54.3, -54.2, -54.1, -54, -53.9, -53.8, -53.7, -53.6, -53.5, -53.4, -53.3, -53.2, -53.1, -53, -52.9, -52.8, -52.7, -52.6, -52.5, -52.4, -52.3, -52.2, -52.1, -52, -51.9, -51.8, -51.7, -51.6, -51.5, -51.4, -51.3, -51.2, -51.1, -51, -50.9, -50.8, -50.7, -50.6, -50.5, -50.4, -50.3, -50.2, -50.1, -50, -49.9, -49.8, -49.7, -49.6, -49.5, -49.4, -49.3, -49.2, -49.1, -49, -48.9, -48.8, -48.7, -48.6, -48.5, -48.4, -48.3, -48.2, -48.1, -48, -47.9, -47.8, -47.7, -47.6, -47.5, -47.4, -47.3, -47.2, -47.1, -47, -46.9, -46.8, -46.7, -46.6, -46.5, -46.4, -46.3, -46.2, -46.1, -46, -45.9, -45.8, -45.7, -45.6, -45.5, -45.4, -45.3, -45.2, -45.1, -45, -44.9, -44.8, -44.7, -44.6, -44.5, -44.4, -44.3, -44.2, -44.1, -44, -43.9, -43.8, -43.7, -43.6, -43.5, -43.4, -43.3, -43.2, -43.1, -43, -42.9, -42.8, -42.7, -42.6, -42.5, -42.4, -42.3, -42.2, -42.1, -42, -41.9, -41.8, -41.7, -41.6, -41.5, -41.4, -41.3, -41.2, -41.1, -41, -40.9, -40.8, -40.7, -40.6, -40.5, -40.4, -40.3, -40.2, -40.1, -40, -39.9, -39.8, -39.7, -39.6, -39.5, -39.4, -39.3, -39.2, -39.1, -39, -38.9, -38.8, -38.7, -38.6, -38.5, -38.4, -38.3, -38.2, -38.1, -38, -37.9, -37.8, -37.7, -37.6, -37.5, -37.4, -37.3, -37.2, -37.1, -37, -36.9, -36.8, -36.7, -36.6, -36.5, -36.4, -36.3, -36.2, -36.1, -36, -35.9, -35.8, -35.7, -35.6, -35.5, -35.4, -35.3, -35.2, -35.1, -35, -34.9, -34.8, -34.7, -34.6, -34.5, -34.4, -34.3, -34.2, -34.1, -34, -33.9, -33.8, -33.7, -33.6, -33.5, -33.4, -33.3, -33.2, -33.1, -33, -32.9, -32.8, -32.7, -32.6, -32.5, -32.4, -32.3, -32.2, -32.1, -32, -31.9, -31.8, -31.7, -31.6, -31.5, -31.4, -31.3, -31.2, -31.1, -31, -30.9, -30.8, -30.7, -30.6, -30.5, -30.4, -30.3, -30.2, -30.1, -30, -29.9, -29.8, -29.7, -29.6, -29.5, -29.4, -29.3, -29.2, -29.1, -29, -28.9, -28.8, -28.7, -28.6, -28.5, -28.4, -28.3, -28.2, -28.1, -28, -27.9, -27.8, -27.7, -27.6, -27.5, -27.4, -27.3, -27.2, -27.1, -27, -26.9, -26.8, -26.7, -26.6, -26.5, -26.4, -26.3, -26.2, -26.1, -26, -25.9, -25.8, -25.7, -25.6, -25.5, -25.4, -25.3, -25.2, -25.1, -25, -24.9, -24.8, -24.7, -24.6, -24.5, -24.4, -24.3, -24.2, -24.1, -24, -23.9, -23.8, -23.7, -23.6, -23.5, -23.4, -23.3, -23.2, -23.1, -23, -22.9, -22.8, -22.7, -22.6, -22.5, -22.4, -22.3, -22.2, -22.1, -22, -21.9, -21.8, -21.7, -21.6, -21.5, -21.4, -21.3, -21.2, -21.1, -21, -20.9, -20.8, -20.7, -20.6, -20.5, -20.4, -20.3, -20.2, -20.1, -20, -19.9, -19.8, -19.7, -19.6, -19.5, -19.4, -19.3, -19.2, -19.1, -19, -18.9, -18.8, -18.7, -18.6, -18.5, -18.4, -18.3, -18.2, -18.1, -18, -17.9, -17.8, -17.7, -17.6, -17.5, -17.4, -17.3, -17.2, -17.1, -17, -16.9, -16.8, -16.7, -16.6, -16.5, -16.4, -16.3, -16.2, -16.1, -16, -15.9, -15.8, -15.7, -15.6, -15.5, -15.4, -15.3, -15.2, -15.1, -15, -14.9, -14.8, -14.7, -14.6, -14.5, -14.4, -14.3, -14.2, -14.1, -14, -13.9, -13.8, -13.7, -13.6, -13.5, -13.4, -13.3, -13.2, -13.1, -13, -12.9, -12.8, -12.7, -12.6, -12.5, -12.4, -12.3, -12.2, -12.1, -12, -11.9, -11.8, -11.7, -11.6, -11.5, -11.4, -11.3, -11.2, -11.1, -11, -10.9, -10.8, -10.7, -10.6, -10.5, -10.4, -10.3, -10.2, -10.1, -10, -9.9, -9.8, -9.7, -9.6, -9.5, -9.4, -9.3, -9.2, -9.1, -9, -8.9, -8.8, -8.7, -8.6, -8.5, -8.4, -8.3, -8.2, -8.1, -8, -7.9, -7.8, -7.7, -7.6, -7.5, -7.4, -7.3, -7.2, -7.1, -7, -6.9, -6.8, -6.7, -6.6, -6.5, -6.4, -6.3, -6.2, -6.1, -6, -5.9, -5.8, -5.7, -5.6, -5.5, -5.4, -5.3, -5.2, -5.1, -5, -4.9, -4.8, -4.7, -4.6, -4.5, -4.4, -4.3, -4.2, -4.1, -4, -3.9, -3.8, -3.7, -3.6, -3.5, -3.4, -3.3, -3.2, -3.1, -3, -2.9, -2.8, -2.7, -2.6, -2.5, -2.4, -2.3, -2.2, -2.1, -2, -1.9, -1.8, -1.7, -1.6, -1.5, -1.4, -1.3, -1.2, -1.1, -1, -0.9, -0.8, -0.7, -0.6, -0.5, -0.4, -0.3, -0.2, -0.1, -5.1159077e-12]
    uint[] omni:sensor:Core:emitterState:s001:fireTimeNs = [0, 0, 0, 0, 0, 0, 0, 0, 0, 0, 0, 0, 0, 0, 0, 0, 0, 0, 0, 0, 0, 0, 0, 0, 0, 0, 0, 0, 0, 0, 0, 0, 0, 0, 0, 0, 0, 0, 0, 0, 0, 0, 0, 0, 0, 0, 0, 0, 0, 0, 0, 0, 0, 0, 0, 0, 0, 0, 0, 0, 0, 0, 0, 0, 0, 0, 0, 0, 0, 0, 0, 0, 0, 0, 0, 0, 0, 0, 0, 0, 0, 0, 0, 0, 0, 0, 0, 0, 0, 0, 0, 0, 0, 0, 0, 0, 0, 0, 0, 0, 0, 0, 0, 0, 0, 0, 0, 0, 0, 0, 0, 0, 0, 0, 0, 0, 0, 0, 0, 0, 0, 0, 0, 0, 0, 0, 0, 0, 0, 0, 0, 0, 0, 0, 0, 0, 0, 0, 0, 0, 0, 0, 0, 0, 0, 0, 0, 0, 0, 0, 0, 0, 0, 0, 0, 0, 0, 0, 0, 0, 0, 0, 0, 0, 0, 0, 0, 0, 0, 0, 0, 0, 0, 0, 0, 0, 0, 0, 0, 0, 0, 0, 0, 0, 0, 0, 0, 0, 0, 0, 0, 0, 0, 0, 0, 0, 0, 0, 0, 0, 0, 0, 0, 0, 0, 0, 0, 0, 0, 0, 0, 0, 0, 0, 0, 0, 0, 0, 0, 0, 0, 0, 0, 0, 0, 0, 0, 0, 0, 0, 0, 0, 0, 0, 0, 0, 0, 0, 0, 0, 0, 0, 0, 0, 0, 0, 0, 0, 0, 0, 0, 0, 0, 0, 0, 0, 0, 0, 0, 0, 0, 0, 0, 0, 0, 0, 0, 0, 0, 0, 0, 0, 0, 0, 0, 0, 0, 0, 0, 0, 0, 0, 0, 0, 0, 0, 0, 0, 0, 0, 0, 0, 0, 0, 0, 0, 0, 0, 0, 0, 0, 0, 0, 0, 0, 0, 0, 0, 0, 0, 0, 0, 0, 0, 0, 0, 0, 0, 0, 0, 0, 0, 0, 0, 0, 0, 0, 0, 0, 0, 0, 0, 0, 0, 0, 0, 0, 0, 0, 0, 0, 0, 0, 0, 0, 0, 0, 0, 0, 0, 0, 0, 0, 0, 0, 0, 0, 0, 0, 0, 0, 0, 0, 0, 0, 0, 0, 0, 0, 0, 0, 0, 0, 0, 0, 0, 0, 0, 0, 0, 0, 0, 0, 0, 0, 0, 0, 0, 0, 0, 0, 0, 0, 0, 0, 0, 0, 0, 0, 0, 0, 0, 0, 0, 0, 0, 0, 0, 0, 0, 0, 0, 0, 0, 0, 0, 0, 0, 0, 0, 0, 0, 0, 0, 0, 0, 0, 0, 0, 0, 0, 0, 0, 0, 0, 0, 0, 0, 0, 0, 0, 0, 0, 0, 0, 0, 0, 0, 0, 0, 0, 0, 0, 0, 0, 0, 0, 0, 0, 0, 0, 0, 0, 0, 0, 0, 0, 0, 0, 0, 0, 0, 0, 0, 0, 0, 0, 0, 0, 0, 0, 0, 0, 0, 0, 0, 0, 0, 0, 0, 0, 0, 0, 0, 0, 0, 0, 0, 0, 0, 0, 0, 0, 0, 0, 0, 0, 0, 0, 0, 0, 0, 0, 0, 0, 0, 0, 0, 0, 0, 0, 0, 0, 0, 0, 0, 0, 0, 0, 0, 0, 0, 0, 0, 0, 0, 0, 0, 0, 0, 0, 0, 0, 0, 0, 0, 0, 0, 0, 0, 0, 0, 0, 0, 0, 0, 0, 0, 0, 0, 0, 0, 0, 0, 0, 0, 0, 0, 0, 0, 0, 0, 0, 0, 0, 0, 0, 0, 0, 0, 0, 0, 0, 0, 0, 0, 0, 0, 0, 0, 0, 0, 0, 0, 0, 0, 0, 0, 0, 0, 0, 0, 0, 0, 0, 0, 0, 0, 0, 0, 0, 0, 0, 0, 0, 0, 0, 0, 0, 0, 0, 0, 0, 0, 0, 0, 0, 0, 0, 0, 0, 0, 0, 0, 0, 0, 0, 0, 0, 0, 0, 0, 0, 0, 0, 0, 0, 0, 0, 0, 0, 0, 0, 0, 0, 0, 0, 0, 0, 0, 0, 0, 0, 0, 0, 0, 0, 0, 0, 0, 0, 0, 0, 0, 0, 0, 0, 0, 0, 0, 0, 0, 0, 0, 0, 0, 0, 0, 0, 0, 0, 0, 0, 0, 0, 0, 0, 0, 0, 0, 0, 0, 0, 0, 0, 0, 0, 0, 0, 0, 0, 0, 0, 0, 0, 0, 0, 0, 0, 0, 0, 0, 0, 0, 0, 0, 0, 0, 0, 0, 0, 0, 0, 0, 0, 0, 0, 0, 0, 0, 0, 0, 0, 0, 0, 0, 0, 0, 0, 0, 0, 0, 0, 0, 0, 0, 0, 0, 0, 0, 0, 0, 0, 0, 0, 0, 0, 0, 0, 0, 0, 0, 0, 0, 0, 0, 0, 0, 0, 0, 0, 0, 0, 0, 0, 0, 0, 0, 0, 0, 0, 0, 0, 0, 0, 0, 0, 0, 0, 0, 0, 0, 0, 0, 0, 0, 0, 0, 0, 0, 0, 0, 0, 0, 0, 0, 0, 0, 0, 0, 0, 0, 0, 0, 0, 0, 0, 0, 0, 0, 0, 0, 0, 0, 0, 0, 0, 0, 0, 0, 0, 0, 0, 0, 0, 0, 0, 0, 0, 0, 0, 0, 0, 0, 0, 0, 0, 0, 0, 0, 0, 0, 0, 0, 0, 0, 0, 0, 0, 0, 0, 0, 0, 0, 0, 0, 0, 0, 0, 0, 0, 0, 0, 0, 0, 0, 0, 0, 0, 0, 0, 0, 0, 0, 0, 0, 0, 0, 0, 0, 0]
    float[] omni:sensor:Core:emitterState:s001:focalDistM = []
    float[] omni:sensor:Core:emitterState:s001:focalSlope = []
    float[] omni:sensor:Core:emitterState:s001:horOffsetM = []
    bool omni:sensor:Core:emitterState:s001:isROIState = 0
    uint[] omni:sensor:Core:emitterState:s001:rangeId = []
    float[] omni:sensor:Core:emitterState:s001:reportRateDiv = []
    bool[] omni:sensor:Core:emitterState:s001:roi = []
    float[] omni:sensor:Core:emitterState:s001:vertOffsetM = []
    string omni:sensor:Core:emitterStatesFile = ""
    float omni:sensor:Core:farRangeM = 200
    float omni:sensor:Core:focusDistM = 0.15
    float[] omni:sensor:Core:intensityMappingDecoding = []
    float[] omni:sensor:Core:intensityMappingEncoding = []
    token omni:sensor:Core:intensityMappingType = "LINEAR"
    token omni:sensor:Core:intensityProcessing = "NORMALIZATION"
    float omni:sensor:Core:intensityScalePercent = 255
    float omni:sensor:Core:maxAzimuthROI = 400
    uint omni:sensor:Core:maxReturns = 2
    float omni:sensor:Core:minAzimuthROI = 400
    float omni:sensor:Core:minDistBetweenEchosM = 0.4
    float omni:sensor:Core:minReflectance = 0.1
    float omni:sensor:Core:minReflectionRangeM = 200
    float omni:sensor:Core:Msquared = 1.4
    float omni:sensor:Core:nearRangeM = 0
    uint omni:sensor:Core:numberOfChannels = 901
    uint omni:sensor:Core:numberOfEmitters = 901
    uint omni:sensor:Core:numLines = 0
    uint[] omni:sensor:Core:numRaysPerLine = []
    float[] omni:sensor:Core:originErrorMean = [0, 0, 0]
    float[] omni:sensor:Core:originErrorStd = [0, 0, 0]
    token omni:sensor:Core:outputFrameOfReference = "SENSOR"
    token omni:sensor:Core:outputMotionCompensationState = "NONCOMPENSATED"
    float omni:sensor:Core:pixelPitch = 40
    uint omni:sensor:Core:pulseTimeNs = 6
    float omni:sensor:Core:quantumEfficiency = 0.95
    float omni:sensor:Core:rangeAccuracyM = 0.02
    uint omni:sensor:Core:rangeCount = 0
    float omni:sensor:Core:rangeOffsetM = 0
    float omni:sensor:Core:rangeResolutionM = 0.004
    float[] omni:sensor:Core:rangesMaxM = []
    float[] omni:sensor:Core:rangesMinM = []
    token omni:sensor:Core:rayType = "IDEALIZED"
    float omni:sensor:Core:reflectionPowerFraction = 0.5
    uint omni:sensor:Core:reportRateBaseHz = 110
    token omni:sensor:Core:rotationDirection = "CW"
    uint omni:sensor:Core:scanRateBaseHz = 110
    token omni:sensor:Core:scanType = "ROTARY"
    bool omni:sensor:Core:skipDroppingInvalidPoints = 0
    float omni:sensor:Core:startAzimuthOffsetDeg = 0
    uint omni:sensor:Core:stateResolutionStep = 1
    float omni:sensor:Core:transmissionPowerFraction = 1
    float omni:sensor:Core:validEndAzimuthDeg = 360
    float omni:sensor:Core:validStartAzimuthDeg = 0
    float omni:sensor:Core:waveLengthNm = 903
    uchar[] omni:sensor:encryption:params = []
    string omni:sensor:marketName = "Generic"
    string omni:sensor:modelName = "LidarCore"
    string omni:sensor:modelVendor = "NVIDIA"
    string omni:sensor:modelVersion = "0.0.0"
    float omni:sensor:tickRate = 10
}

def Camera "OmniverseKit_Persp" (
    customData = {
        dictionary omni = {
            dictionary kit = {
                bool hide_in_stage_window = 1
                bool no_delete = 1
            }
        }
    }
    hide_in_stage_window = true
    kind = "component"
    no_delete = true
)
{
    float2 clippingRange = (0.01, 10000000)
    float focalLength = 18.147562
    float focusDistance = 400
    custom uniform vector3d omni:kit:centerOfInterest = (0, 0, -8.660254037844386)
    float3 xformOp:rotateXYZ = (54.73561, -6.3611094e-15, 135)
    float3 xformOp:scale = (1, 1, 1)
    double3 xformOp:translate = (5, 5, 5)
    uniform token[] xformOpOrder = ["xformOp:translate", "xformOp:rotateXYZ", "xformOp:scale"]
}

def Camera "OmniverseKit_Front" (
    customData = {
        dictionary omni = {
            dictionary kit = {
                bool hide_in_stage_window = 1
                bool no_delete = 1
            }
        }
    }
    hide_in_stage_window = true
    kind = "component"
    no_delete = true
)
{
    float2 clippingRange = (1, 10000000)
    float horizontalAperture = 50
    custom uniform vector3d omni:kit:centerOfInterest = (0, 0, -5)
    token projection = "orthographic"
    float verticalAperture = 50
    float3 xformOp:rotateXYZ = (90, -1.2722219e-14, 90)
    float3 xformOp:scale = (1, 1, 1)
    double3 xformOp:translate = (5, 0, 0)
    uniform token[] xformOpOrder = ["xformOp:translate", "xformOp:rotateXYZ", "xformOp:scale"]
}

def Camera "OmniverseKit_Top" (
    customData = {
        dictionary omni = {
            dictionary kit = {
                bool hide_in_stage_window = 1
                bool no_delete = 1
            }
        }
    }
    hide_in_stage_window = true
    kind = "component"
    no_delete = true
)
{
    float2 clippingRange = (1, 10000000)
    float horizontalAperture = 50
    custom uniform vector3d omni:kit:centerOfInterest = (0, 0, -5)
    token projection = "orthographic"
    float verticalAperture = 50
    float3 xformOp:rotateXYZ = (1.2722219e-14, -7.016709e-15, -90)
    float3 xformOp:scale = (1, 1, 1)
    double3 xformOp:translate = (0, 0, 5)
    uniform token[] xformOpOrder = ["xformOp:translate", "xformOp:rotateXYZ", "xformOp:scale"]
}

def Camera "OmniverseKit_Right" (
    customData = {
        dictionary omni = {
            dictionary kit = {
                bool hide_in_stage_window = 1
                bool no_delete = 1
            }
        }
    }
    hide_in_stage_window = true
    kind = "component"
    no_delete = true
)
{
    float2 clippingRange = (1, 10000000)
    float horizontalAperture = 50
    custom uniform vector3d omni:kit:centerOfInterest = (0, 0, -5)
    token projection = "orthographic"
    float verticalAperture = 50
    float3 xformOp:rotateXYZ = (90, 7.06225e-31, -1.2722219e-14)
    float3 xformOp:scale = (1, 1, 1)
    double3 xformOp:translate = (0, -5, 0)
    uniform token[] xformOpOrder = ["xformOp:translate", "xformOp:rotateXYZ", "xformOp:scale"]
}

